<svg xmlns="http://www.w3.org/2000/svg" xmlns:xlink="http://www.w3.org/1999/xlink" width="279.129" height="72.298" viewBox="0 0 279.129 72.298">
  <defs>
    <clipPath id="clip-path">
      <rect id="Rechteck_84" data-name="Rechteck 84" width="279.129" height="72.298" fill="#c04231"/>
    </clipPath>
  </defs>
  <g id="logo-ergopraxis-weisser-hirsch" clip-path="url(#clip-path)">
    <path id="Pfad_28" data-name="Pfad 28" d="M257.805,22.616a19.18,19.18,0,0,1-.543,3.468,9.282,9.282,0,0,0,5,1.554c3.586,0,6.991-1.951,6.991-6.106,0-6.395-8.548-4.877-8.548-8.382,0-1.264,1.123-2.1,2.572-2.1a3.723,3.723,0,0,1,3.586,3.035h1.014a11.8,11.8,0,0,1,.869-3.179,8.424,8.424,0,0,0-5.107-1.7c-3.007,0-6.339,1.734-6.339,5.817,0,6.286,8.331,5.2,8.331,8.49,0,1.011-.978,2.059-2.644,2.059a4.226,4.226,0,0,1-4.274-2.963ZM246.522,2.854A2.862,2.862,0,1,0,249.384,0a2.841,2.841,0,0,0-2.861,2.854m.435,16.294c0,2.927-.072,5.491-.29,8.02a23.545,23.545,0,0,1,2.717-.181,22.949,22.949,0,0,1,2.716.181c-.217-2.529-.29-5.094-.29-8.02V17.7c0-2.927.072-5.491.29-8.02a22.949,22.949,0,0,1-2.716.181,23.544,23.544,0,0,1-2.717-.181c.217,2.529.29,5.094.29,8.02Zm-11.282,8.02c.978-.072,1.992-.181,2.97-.181s1.992.108,2.97.181c-1.992-3.36-4.021-6.648-5.94-9.9,1.811-2.529,5-6.5,5.9-7.587-.688.072-1.2.181-1.7.181a10.931,10.931,0,0,1-1.521-.181c-1.159,1.951-2.463,3.793-3.767,5.744-1.087-1.915-2.1-3.866-3.115-5.744-.978.072-1.956.181-2.934.181s-1.956-.108-3.115-.181c.942,1.481,3.984,6.431,5.759,9.574-1.739,2.565-5.108,7.045-5.8,7.912.688-.072,1.159-.181,1.63-.181a11.84,11.84,0,0,1,1.485.181c1.159-2.059,2.463-4.155,3.84-6.142Zm-20.447-5.6c0,2.348-1.087,3.577-2.68,3.577-1.268,0-2.065-.976-2.065-2.746,0-3.649,2.716-3.468,4.781-4.624,0,.831-.036,1.7-.036,3.793m-8.114-7.659h.254a6.027,6.027,0,0,1,4.347-1.987,3.175,3.175,0,0,1,3.478,3.143c0,1.3-.362,1.59-4.419,2.565-3.26.795-5.361,2.131-5.361,5.275,0,2.312,1.521,4.733,5.18,4.733A5.579,5.579,0,0,0,215.3,25a3.484,3.484,0,0,0,3.441,2.637,6.521,6.521,0,0,0,3.333-.976V25.8c-1.485,0-2.137-.217-2.137-2.493,0-2.6.109-5.13.109-8.2,0-4.263-2.789-5.889-6.629-5.889a10.944,10.944,0,0,0-6.773,2.529Zm-10.2-4.227c-.833.072-1.666.181-2.5.181s-1.666-.108-2.5-.181c.217,2.529.29,5.094.29,8.02v1.445c0,2.927-.072,5.491-.29,8.02a23.553,23.553,0,0,1,2.717-.181,22.954,22.954,0,0,1,2.717.181c-.217-2.529-.29-5.094-.29-8.02V17.7a3.438,3.438,0,0,1,3.514-3.577,3.487,3.487,0,0,1,1.847.506l.326-.289c-.036-.831-.036-1.662-.036-2.384a12.682,12.682,0,0,1,.217-2.6c-.181,0-.362-.036-.579-.036-2.427,0-4.2,1.517-5.47,4.841l-.072-.072ZM170.024,24.17c0,4.733-.109,8.418-.29,12.5a20.517,20.517,0,0,1,5.433,0c-.29-1.734-.29-8.2-.29-11.669h.073a4.893,4.893,0,0,0,4.673,2.637c3.55,0,7.136-2.637,7.136-9.5,0-6.286-3.369-8.924-7.027-8.924a5.285,5.285,0,0,0-5.144,3.577h-.072c0-1.048.181-2.312.254-3.107-.833.072-1.666.181-2.5.181s-1.7-.108-2.536-.181c.181,4.082.29,7.768.29,12.5ZM181.4,18.245c0,4.733-1.3,7.009-3.369,7.009-2.1,0-3.333-2.059-3.333-6.431,0-5.419,1.666-7.37,3.478-7.37,1.92,0,3.224,2.023,3.224,6.792m-21.932-.723c0,5.6-1.232,8.49-3.477,8.49-2.68,0-3.55-3.071-3.55-7.117,0-5.455,1.376-8.056,3.586-8.056,2.391,0,3.441,2.529,3.441,6.684m-12.388,1.337c0,6.395,4.564,8.779,8.874,8.779,5.216,0,8.875-3.685,8.875-9.574,0-5.419-3.3-8.852-8.875-8.852-4.564,0-8.874,3.179-8.874,9.646m-12.26-8.165c1.3,0,2.282,1.192,2.282,4.444s-.761,4.588-2.354,4.588c-1.123,0-2.391-1.12-2.391-4.263,0-3.179.8-4.769,2.463-4.769m8.693.434a7.025,7.025,0,0,1-.072-.867,7.034,7.034,0,0,1,.072-.867c-1.3,0-2.644.036-3.84.036-.761,0-1.412-.036-2.028-.072-.869-.036-1.811-.145-2.681-.145-4.564,0-7.679,2.132-7.679,5.817a5.652,5.652,0,0,0,1.231,3.757,6.356,6.356,0,0,0,3.4,1.951v.072a4.354,4.354,0,0,0-3.369,3.83,3.008,3.008,0,0,0,2.065,2.782v.072c-2.1.795-3.55,2.2-3.55,4.48,0,2.818,2.717,4.8,7.208,4.8,4.274,0,9.563-1.987,9.563-7.731,0-3.288-1.92-4.733-5.9-4.769l-2.68-.036c-1.92-.036-2.789-.759-2.789-1.915a1.217,1.217,0,0,1,1.05-1.3c.616,0,1.123.036,1.63.036,4.166,0,7.027-2.421,7.027-6a4.732,4.732,0,0,0-1.956-4.01l.109-.072ZM139.635,31a4.28,4.28,0,0,1-4.528,4.3c-2.572,0-4.745-1.409-4.745-4.155A3.622,3.622,0,0,1,131.775,28a6.426,6.426,0,0,1,2.608-.361c3.26,0,5.252.542,5.252,3.36M117.268,9.682c-.833.072-1.666.181-2.5.181s-1.666-.108-2.5-.181c.217,2.529.29,5.094.29,8.02v1.445c0,2.927-.072,5.491-.29,8.02a23.543,23.543,0,0,1,2.716-.181,22.95,22.95,0,0,1,2.717.181c-.217-2.529-.29-5.094-.29-8.02V17.7a3.438,3.438,0,0,1,3.513-3.577,3.486,3.486,0,0,1,1.847.506l.326-.289c-.036-.831-.036-1.662-.036-2.384a12.683,12.683,0,0,1,.217-2.6c-.181,0-.362-.036-.579-.036-2.427,0-4.2,1.517-5.469,4.841l-.073-.072ZM93.091,17.161c0,4.046-.072,6.828-.29,10.007.8-.072,1.775-.181,7.679-.181,3.332,0,5.035.144,6.339.181a7.747,7.747,0,0,1-.145-1.553,9.26,9.26,0,0,1,.145-1.626,71.852,71.852,0,0,1-8.295.469c-.072-1.445-.109-3-.109-4.516,0-1.553.036-3.107.036-4.624,2.753,0,5.469.108,8.222.325a11.235,11.235,0,0,1-.181-1.481,8.353,8.353,0,0,1,.181-1.626c-2.753.144-5.071.217-8.222.289,0-2.637,0-5.239.181-7.876,1.087,0,5.433.253,8.186.434a9.615,9.615,0,0,1-.145-1.626,8.263,8.263,0,0,1,.145-1.517c-.978.108-4.021.181-7.571.181-2.137,0-4.31-.144-6.448-.181.217,3.179.29,5.961.29,10.007Z" transform="translate(-67.059)" fill="#2c377d"/>
    <path id="Pfad_29" data-name="Pfad 29" d="M799.373,62.1a5.408,5.408,0,1,1,7.659,0,5.39,5.39,0,0,1-7.659,0" transform="translate(-576.492 -38.25)" fill="#c04231"/>
    <path id="Pfad_30" data-name="Pfad 30" d="M806.74,202.5a5.408,5.408,0,1,1,0-7.639,5.426,5.426,0,0,1,0,7.639" transform="translate(-576.281 -139.81)" fill="#c04231"/>
    <path id="Pfad_31" data-name="Pfad 31" d="M878.92,227.672a5.416,5.416,0,1,1-5.416-5.4,5.41,5.41,0,0,1,5.416,5.4" transform="translate(-627.293 -160.777)" fill="#c04231"/>
    <path id="Pfad_32" data-name="Pfad 32" d="M946.851,195.516a5.409,5.409,0,1,1-7.659,0,5.393,5.393,0,0,1,7.659,0" transform="translate(-677.528 -140.279)" fill="#c04231"/>
    <path id="Pfad_33" data-name="Pfad 33" d="M972.659,123.2a5.4,5.4,0,1,1-5.415,5.4,5.409,5.409,0,0,1,5.415-5.4" transform="translate(-698.945 -89.114)" fill="#c04231"/>
    <path id="Pfad_34" data-name="Pfad 34" d="M939.425,54.981a5.409,5.409,0,1,1,0,7.639,5.424,5.424,0,0,1,0-7.639" transform="translate(-677.696 -38.626)" fill="#c04231"/>
    <path id="Pfad_35" data-name="Pfad 35" d="M868.521,30.088a5.415,5.415,0,1,1,5.415,5.4,5.407,5.407,0,0,1-5.415-5.4" transform="translate(-627.606 -17.858)" fill="#c04231"/>
    <path id="Pfad_36" data-name="Pfad 36" d="M772.814,133.1h0a5.892,5.892,0,0,1-5.894-5.877,5.885,5.885,0,0,1,5.893-5.877,5.877,5.877,0,1,1,0,11.754m0-10.8h0a4.924,4.924,0,1,0,4.939,4.924,4.912,4.912,0,0,0-4.939-4.924" transform="translate(-554.188 -87.776)" fill="#c04231"/>
    <path id="Pfad_37" data-name="Pfad 37" d="M249.128,184.791c0,3.786-.087,6.734-.232,10a16.391,16.391,0,0,1,4.346,0c-.174-2.023-.232-5.347-.232-6.416v-1.156c0-2.659.782-4.248,2.521-4.248,1.507,0,2.376,1.127,2.376,3.526a72.43,72.43,0,0,1-.319,8.295,16.391,16.391,0,0,1,4.346,0c-.058-1.474-.145-2.977-.145-4.191,0-1.5.116-2.89.116-4.855,0-3.7-1.622-5.318-4.52-5.318a5.093,5.093,0,0,0-4.317,2.543l-.058-.058c0-3.786.087-6.734.232-10a16.424,16.424,0,0,1-4.346,0c.145,3.266.232,6.214.232,10Zm-3.13,0a10.26,10.26,0,0,1,1.1-3.006,9.222,9.222,0,0,0-4.984-1.358c-4.636,0-7.65,3.15-7.65,7.4,0,3.526,1.883,7.341,7.534,7.341a6.4,6.4,0,0,0,3.912-1.243,12.091,12.091,0,0,1,.637-1.705l-.348-.289a4.1,4.1,0,0,1-2.984,1.358c-2.811,0-4.317-1.936-4.317-5.433,0-3.728,1.217-5.954,3.477-5.954,1.768,0,2.637,1.214,2.927,2.89Zm-22.776,6.358a15.333,15.333,0,0,1-.435,2.774,7.427,7.427,0,0,0,4,1.243c2.868,0,5.592-1.561,5.592-4.884,0-5.115-6.838-3.9-6.838-6.7,0-1.012.9-1.676,2.057-1.676a2.978,2.978,0,0,1,2.868,2.428h.811a9.454,9.454,0,0,1,.7-2.543,6.739,6.739,0,0,0-4.086-1.358c-2.4,0-5.071,1.387-5.071,4.653,0,5.029,6.665,4.162,6.665,6.792a1.889,1.889,0,0,1-2.115,1.647,3.381,3.381,0,0,1-3.419-2.37Zm-6.81-10.347c-.667.058-1.333.145-2,.145s-1.333-.087-2-.145c.174,2.023.232,4.075.232,6.416v1.156c0,2.341-.058,4.393-.232,6.416a18.824,18.824,0,0,1,2.173-.145,18.343,18.343,0,0,1,2.173.145c-.174-2.023-.232-4.075-.232-6.416v-1.156a2.75,2.75,0,0,1,2.811-2.861,2.791,2.791,0,0,1,1.478.4l.261-.231c-.029-.665-.029-1.329-.029-1.908a10.135,10.135,0,0,1,.174-2.081c-.145,0-.29-.029-.464-.029-1.941,0-3.361,1.214-4.375,3.872l-.058-.058Zm-12.054-5.462a2.289,2.289,0,1,0,2.289-2.283,2.272,2.272,0,0,0-2.289,2.283m.348,13.034c0,2.341-.058,4.393-.232,6.416a18.822,18.822,0,0,1,2.173-.145,18.343,18.343,0,0,1,2.173.145c-.174-2.023-.232-4.075-.232-6.416v-1.156c0-2.341.058-4.393.232-6.416a18.342,18.342,0,0,1-2.173.145,18.821,18.821,0,0,1-2.173-.145c.174,2.023.232,4.075.232,6.416Zm-8.954-1.589c0,3.237-.058,5.462-.232,8.006.638-.058,1.42-.145,2.376-.145s1.739.087,2.376.145c-.174-2.543-.232-4.769-.232-8.006v-3.931c0-3.237.058-5.462.232-8.006-.637.058-1.42.144-2.376.144s-1.738-.087-2.376-.144c.174,2.514.232,4.74.232,7.948-1.1.029-2.318.058-4.375.058s-3.448-.029-4.433-.058c0-3.208.058-5.433.232-7.948-.637.058-1.42.144-2.376.144s-1.739-.087-2.376-.144c.174,2.543.232,4.769.232,8.006v3.931c0,3.237-.058,5.462-.232,8.006.637-.058,1.42-.145,2.376-.145s1.738.087,2.376.145c-.174-2.543-.232-4.769-.232-8.006v-1.647c1.478-.058,2.956-.116,4.4-.116,1.478,0,2.927.087,4.4.116ZM166.486,180.8c-.667.058-1.333.145-2,.145s-1.333-.087-2-.145c.174,2.023.232,4.075.232,6.416v1.156c0,2.341-.058,4.393-.232,6.416a18.823,18.823,0,0,1,2.173-.145,18.344,18.344,0,0,1,2.173.145c-.174-2.023-.232-4.075-.232-6.416v-1.156a2.751,2.751,0,0,1,2.811-2.861,2.792,2.792,0,0,1,1.478.4l.261-.231c-.029-.665-.029-1.329-.029-1.908a10.134,10.134,0,0,1,.174-2.081c-.145,0-.29-.029-.464-.029-1.941,0-3.361,1.214-4.376,3.872l-.058-.058Zm-6.665,6.994a7.675,7.675,0,0,0,.029-.954c0-4.017-2.144-6.416-5.911-6.416-3.883,0-6.722,2.428-6.722,7.428,0,5.058,3.274,7.312,7.041,7.312a6.814,6.814,0,0,0,4.4-1.3l.637-1.618-.348-.26a5.421,5.421,0,0,1-3.564,1.3c-2.666,0-3.883-2.37-3.883-5.491Zm-8.316-1.3c.058-2.254.609-4.769,2.318-4.769,1.507,0,2.087,1.879,2.144,4.769Zm-13.764,5.4a5.908,5.908,0,0,1-.666,2.659,5.393,5.393,0,0,0,2.666.607c2.724,0,5.737-2.977,5.737-6.011,0-4.075-5.274-4.538-5.274-7.4,0-.694.348-1.272,1.449-2.37a3.794,3.794,0,0,0,1.449-2.89c0-2.167-1.623-3.67-4.781-3.67-3.825,0-6.636,2.283-6.636,6.5,0,2.832.232,5.491.232,7.109,0,2.139-.087,5.087-.232,8.352a16.391,16.391,0,0,1,4.346,0c-.174-2.023-.232-5.347-.232-6.416V177.884c0-2.428.84-3.873,2.666-3.873a2.542,2.542,0,0,1,2.55,2.6,7.057,7.057,0,0,1-1.68,3.786c-1.42,1.792-1.941,2.774-1.941,3.9,0,3.555,5.36,4.393,5.36,7.428a1.884,1.884,0,0,1-2.086,1.792,3.118,3.118,0,0,1-2.492-1.618Zm-13.909-16.56a2.289,2.289,0,1,0,2.289-2.283,2.273,2.273,0,0,0-2.289,2.283m.348,13.034c0,2.341-.058,4.393-.232,6.416a18.813,18.813,0,0,1,2.173-.145,18.338,18.338,0,0,1,2.173.145c-.174-2.023-.232-4.075-.232-6.416v-1.156c0-2.341.058-4.393.232-6.416a18.337,18.337,0,0,1-2.173.145,18.812,18.812,0,0,1-2.173-.145c.174,2.023.232,4.075.232,6.416Zm-3.014-.578a7.671,7.671,0,0,0,.029-.954c0-4.017-2.144-6.416-5.911-6.416-3.883,0-6.722,2.428-6.722,7.428,0,5.058,3.274,7.312,7.041,7.312a6.814,6.814,0,0,0,4.4-1.3l.637-1.618-.348-.26a5.422,5.422,0,0,1-3.564,1.3c-2.666,0-3.883-2.37-3.883-5.491Zm-8.316-1.3c.058-2.254.609-4.769,2.318-4.769,1.507,0,2.086,1.879,2.144,4.769Zm-18.2-5.9c1.739,4.74,3.332,9.451,4.578,14.19a13.278,13.278,0,0,1,1.507-.145,12.782,12.782,0,0,1,1.478.145c1.854-6.387,5.824-17.716,6.606-19.942a7.212,7.212,0,0,1-1.333.144,6.057,6.057,0,0,1-1.217-.144c-.521,2.283-2.811,9.74-4.288,14.595h-.058c-1.043-3.815-4.057-12.023-4.578-14.595a7.338,7.338,0,0,1-2.9,0c-.811,2.688-3.274,9.74-4.984,14.595h-.058c-1.1-4.046-2.608-9.653-3.8-14.595a21.273,21.273,0,0,1-2.347.144,23.794,23.794,0,0,1-2.434-.144c.435,1.243,4.578,14.884,5.824,19.942a13.272,13.272,0,0,1,1.507-.145,12.783,12.783,0,0,1,1.478.145c1.217-4.075,3.593-10.26,4.955-14.19Z" transform="translate(-58.41 -125.011)" fill="#2c377d"/>
    <path id="Pfad_38" data-name="Pfad 38" d="M11.686,128.922a6.836,6.836,0,1,1,0-9.655,6.859,6.859,0,0,1,0,9.655" transform="translate(0 -84.824)" fill="#c04231"/>
    <rect id="Rechteck_63" data-name="Rechteck 63" width="4.709" height="0.962" transform="translate(19.566 38.79)" fill="#c04231"/>
    <rect id="Rechteck_64" data-name="Rechteck 64" width="4.709" height="0.962" transform="translate(28.695 38.79)" fill="#c04231"/>
    <rect id="Rechteck_65" data-name="Rechteck 65" width="4.709" height="0.962" transform="translate(37.823 38.79)" fill="#c04231"/>
    <rect id="Rechteck_66" data-name="Rechteck 66" width="4.709" height="0.962" transform="translate(46.952 38.79)" fill="#c04231"/>
    <rect id="Rechteck_67" data-name="Rechteck 67" width="4.709" height="0.962" transform="translate(56.08 38.79)" fill="#c04231"/>
    <rect id="Rechteck_68" data-name="Rechteck 68" width="4.709" height="0.962" transform="translate(65.209 38.79)" fill="#c04231"/>
    <rect id="Rechteck_69" data-name="Rechteck 69" width="4.709" height="0.962" transform="translate(74.337 38.79)" fill="#c04231"/>
    <rect id="Rechteck_70" data-name="Rechteck 70" width="4.709" height="0.962" transform="translate(83.465 38.79)" fill="#c04231"/>
    <rect id="Rechteck_71" data-name="Rechteck 71" width="4.709" height="0.962" transform="translate(92.594 38.79)" fill="#c04231"/>
    <rect id="Rechteck_72" data-name="Rechteck 72" width="4.709" height="0.962" transform="translate(101.722 38.79)" fill="#c04231"/>
    <rect id="Rechteck_73" data-name="Rechteck 73" width="4.709" height="0.962" transform="translate(110.851 38.79)" fill="#c04231"/>
    <rect id="Rechteck_74" data-name="Rechteck 74" width="4.709" height="0.962" transform="translate(119.979 38.79)" fill="#c04231"/>
    <rect id="Rechteck_75" data-name="Rechteck 75" width="4.709" height="0.962" transform="translate(129.108 38.79)" fill="#c04231"/>
    <rect id="Rechteck_76" data-name="Rechteck 76" width="4.709" height="0.962" transform="translate(138.236 38.79)" fill="#c04231"/>
    <rect id="Rechteck_77" data-name="Rechteck 77" width="4.709" height="0.962" transform="translate(147.364 38.79)" fill="#c04231"/>
    <rect id="Rechteck_78" data-name="Rechteck 78" width="4.709" height="0.962" transform="translate(156.493 38.79)" fill="#c04231"/>
    <rect id="Rechteck_79" data-name="Rechteck 79" width="4.709" height="0.962" transform="translate(165.621 38.79)" fill="#c04231"/>
    <rect id="Rechteck_80" data-name="Rechteck 80" width="4.709" height="0.962" transform="translate(174.75 38.79)" fill="#c04231"/>
    <rect id="Rechteck_81" data-name="Rechteck 81" width="4.709" height="0.962" transform="translate(183.878 38.79)" fill="#c04231"/>
    <rect id="Rechteck_82" data-name="Rechteck 82" width="4.709" height="0.962" transform="translate(193.006 38.79)" fill="#c04231"/>
    <rect id="Rechteck_83" data-name="Rechteck 83" width="4.709" height="0.962" transform="translate(202.135 38.79)" fill="#c04231"/>
  </g>
</svg>
