<svg xmlns="http://www.w3.org/2000/svg" xmlns:xlink="http://www.w3.org/1999/xlink" width="279.477" height="275.418" viewBox="0 0 279.477 275.418">
  <defs>
    <clipPath id="clip-path">
      <rect id="Rechteck_241" data-name="Rechteck 241" width="125.264" height="115.291" fill="none"/>
    </clipPath>
  </defs>
  <g id="Gruppe_95" data-name="Gruppe 95" transform="translate(-549 -592.291)">
    <g id="Gruppe_86" data-name="Gruppe 86" transform="translate(679.606 752.418)">
      <g id="Gruppe_85" data-name="Gruppe 85" clip-path="url(#clip-path)">
        <path id="Pfad_365" data-name="Pfad 365" d="M125.264.413C123.472,42.375,98.1,63.729,77.114,74.256A128.649,128.649,0,0,1,31.963,87.033a3.485,3.485,0,0,1-3.7-3.479l.012-19.8a.034.034,0,0,0-.058-.024L11.243,80.67a4,4,0,0,0-.005,5.658l16.988,17.007a.033.033,0,0,0,.057-.024V95.737a3.636,3.636,0,0,1,3.326-3.707,3.483,3.483,0,0,1,3.64,3.48v16.22a3.5,3.5,0,0,1-.793,2.31,3.545,3.545,0,0,1-2.689,1.251A3.484,3.484,0,0,1,29.3,114.27L1.019,85.954a3.483,3.483,0,0,1,0-4.927l28.283-28.22a3.474,3.474,0,0,1,5.943,2.544l-.013,24.3a.033.033,0,0,0,.036.034A125.445,125.445,0,0,0,74.183,67.932C102.176,53.816,117.022,30.96,118.309,0" fill="#12120d"/>
      </g>
    </g>
    <g id="Gruppe_92" data-name="Gruppe 92" transform="translate(711.477 712.582) rotate(120)">
      <g id="Gruppe_91" data-name="Gruppe 91" clip-path="url(#clip-path)">
        <path id="Pfad_368" data-name="Pfad 368" d="M125.264.413C123.472,42.375,98.1,63.729,77.114,74.256A128.649,128.649,0,0,1,31.963,87.033a3.485,3.485,0,0,1-3.7-3.479l.012-19.8a.034.034,0,0,0-.058-.024L11.243,80.67a4,4,0,0,0-.005,5.658l16.988,17.007a.033.033,0,0,0,.057-.024V95.737a3.636,3.636,0,0,1,3.326-3.707,3.483,3.483,0,0,1,3.64,3.48v16.22a3.5,3.5,0,0,1-.793,2.31,3.545,3.545,0,0,1-2.689,1.251A3.484,3.484,0,0,1,29.3,114.27L1.019,85.954a3.483,3.483,0,0,1,0-4.927l28.283-28.22a3.474,3.474,0,0,1,5.943,2.544l-.013,24.3a.033.033,0,0,0,.036.034A125.445,125.445,0,0,0,74.183,67.932C102.176,53.816,117.022,30.96,118.309,0" fill="#12120d"/>
      </g>
    </g>
    <g id="Gruppe_94" data-name="Gruppe 94" transform="translate(728.632 758.418) rotate(-120)">
      <g id="Gruppe_93" data-name="Gruppe 93" clip-path="url(#clip-path)">
        <path id="Pfad_369" data-name="Pfad 369" d="M125.264.413C123.472,42.375,98.1,63.729,77.114,74.256A128.649,128.649,0,0,1,31.963,87.033a3.485,3.485,0,0,1-3.7-3.479l.012-19.8a.034.034,0,0,0-.058-.024L11.243,80.67a4,4,0,0,0-.005,5.658l16.988,17.007a.033.033,0,0,0,.057-.024V95.737a3.636,3.636,0,0,1,3.326-3.707,3.483,3.483,0,0,1,3.64,3.48v16.22a3.5,3.5,0,0,1-.793,2.31,3.545,3.545,0,0,1-2.689,1.251A3.484,3.484,0,0,1,29.3,114.27L1.019,85.954a3.483,3.483,0,0,1,0-4.927l28.283-28.22a3.474,3.474,0,0,1,5.943,2.544l-.013,24.3a.033.033,0,0,0,.036.034A125.445,125.445,0,0,0,74.183,67.932C102.176,53.816,117.022,30.96,118.309,0" fill="#12120d"/>
      </g>
    </g>
  </g>
</svg>
